<svg fill="#F9F9F9" height="512pt" viewBox="0 0 512.00229 512" width="512pt" xmlns="http://www.w3.org/2000/svg"><path d="m297.742188 142.492188c-11.441407-11.339844-17.742188-26.429688-17.742188-42.488282 0-16.0625 6.300781-31.148437 17.742188-42.488281l52.179687-51.71875c7.847656-7.773437 20.507813-7.71875 28.285156.128906 7.773438 7.84375 7.71875 20.507813-.128906 28.28125l-45.195313 44.796875h69.070313c60.605469 0 109.949219 49.304688 110 109.90625l.046875 55.074219c.007812 11.046875-8.9375 20.007813-19.984375 20.015625-.003906 0-.011719 0-.015625 0-11.039062 0-19.992188-8.941406-20-19.980469l-.046875-55.074219c-.03125-38.566406-31.433594-69.941406-70-69.941406h-71.089844l47.214844 46.792969c7.847656 7.777344 7.902344 20.4375.128906 28.285156-3.910156 3.945313-9.058593 5.921875-14.207031 5.921875-5.089844 0-10.179688-1.929687-14.078125-5.796875zm190.980468 218.019531c-27.933594-26.933594-51.335937-42.480469-73.648437-48.929688-30.746094-8.882812-59.222657-.804687-84.640625 24.019531-.039063.035157-.074219.074219-.113282.113282l-27.066406 26.859375c-16.8125-9.441407-49.492187-30.226563-85.234375-65.96875l-2.632812-2.628907c-35.507813-35.507812-56.421875-68.375-65.9375-85.253906l26.839843-27.039062c.035157-.039063.074219-.078125.113282-.117188 24.820312-25.414062 32.898437-53.890625 24.015625-84.640625-6.449219-22.3125-21.996094-45.714843-48.929688-73.644531-13.757812-14.265625-32.238281-22.515625-52.042969-23.2304688-19.8125-.7187502-38.832031 6.1835938-53.582031 19.4218748l-.574219.515625c-.265624.242188-.523437.488281-.777343.738281-29.359375 29.359376-44.75 70.460938-44.50781275 118.863282.41015575 82.222656 45.60156275 176.25 120.87890575 251.527344 14.195313 14.195312 30.332032 28.246093 47.949219 41.753906 8.769531 6.722656 21.320313 5.0625 28.042969-3.703125 6.71875-8.765625 5.0625-21.320313-3.703125-28.039063-16.234375-12.445312-31.039063-25.332031-44.003906-38.292968-67.996094-67.996094-108.804688-151.527344-109.164063-223.445313-.1875-37.273437 11.027344-68.390625 32.429688-90.015625l.152344-.136719c14.539062-13.050781 36.546874-12.257812 50.105468 1.808594 51.785156 53.699219 48.03125 79.050781 25.148438 102.515625l-37.070313 37.347656c-5.8125 5.855469-7.433593 14.6875-4.074219 22.226563.941407 2.113281 23.710938 52.425781 80.417969 109.132812l2.628907 2.628907c56.699218 56.699218 107.011718 79.464843 109.125 80.40625 7.539062 3.355468 16.367187 1.742187 22.226562-4.074219l37.351562-37.074219c23.464844-22.878906 48.8125-26.628906 102.511719 25.148438 14.0625 13.5625 14.855469 35.570312 1.8125 50.105468l-.140625.15625c-21.449218 21.230469-52.230468 32.433594-89.101562 32.433594-.304688 0-.609375 0-.914063-.003906-29.472656-.144532-63.597656-8.222656-98.6875-23.359375-10.140625-4.375-21.914062.300781-26.285156 10.441406-4.375 10.144531.300781 21.910156 10.441406 26.285156 40.5625 17.496094 79.027344 26.457031 114.332031 26.632813.375.003906.75.003906 1.125.003906 47.914063 0 88.605469-15.378906 117.738282-44.507812.25-.253907.496094-.515626.738281-.78125l.515625-.578126c13.238281-14.746093 20.136719-33.773437 19.421875-53.578124-.71875-19.804688-8.96875-38.285157-23.230469-52.042969zm0 0"/></svg>